
<svg fill="#28b779" width="25px" height="25px" viewBox="0 0 24.00 24.00" xmlns="http://www.w3.org/2000/svg" stroke="#28b779" stroke-width="0.00024000000000000003" transform="matrix(-1, 0, 0, -1, 0, 0)rotate(0)"><g id="SVGRepo_bgCarrier" stroke-width="0"><rect x="0" y="0" width="24.00" height="24.00" rx="12" fill="#ffffff" strokewidth="0"></rect></g><g id="SVGRepo_tracerCarrier" stroke-linecap="round" stroke-linejoin="round"></g><g id="SVGRepo_iconCarrier"><path d="M12 5c-7.633 0-9.927 6.617-9.948 6.684L1.946 12l.105.316C2.073 12.383 4.367 19 12 19s9.927-6.617 9.948-6.684l.106-.316-.105-.316C21.927 11.617 19.633 5 12 5zm0 11c-2.206 0-4-1.794-4-4s1.794-4 4-4 4 1.794 4 4-1.794 4-4 4z"></path><path d="M12 10c-1.084 0-2 .916-2 2s.916 2 2 2 2-.916 2-2-.916-2-2-2z"></path></g></svg>